<svg width="520" height="70" viewBox="0 0 520 70" xmlns="http://www.w3.org/2000/svg">
  <style>
    .empty { fill: none; stroke: #f8fafc; stroke-width: 1; opacity: 0.4; }
    .filled { fill: #f8fafc; opacity: 0; animation: appear 0.08s ease-out forwards; }
    @keyframes appear { to { opacity: 1; } }
  </style>
  
  <g transform="translate(15, 5)">
    <!-- A -->
    <g>
      <rect x="0" y="0" width="8" height="8" rx="1" class="empty"/>
      <rect x="10" y="0" width="8" height="8" rx="1" class="filled" style="animation-delay: 0s"/>
      <rect x="20" y="0" width="8" height="8" rx="1" class="filled" style="animation-delay: 0.02s"/>
      <rect x="30" y="0" width="8" height="8" rx="1" class="empty"/>
      
      <rect x="0" y="10" width="8" height="8" rx="1" class="filled" style="animation-delay: 0.04s"/>
      <rect x="10" y="10" width="8" height="8" rx="1" class="empty"/>
      <rect x="20" y="10" width="8" height="8" rx="1" class="empty"/>
      <rect x="30" y="10" width="8" height="8" rx="1" class="filled" style="animation-delay: 0.06s"/>
      
      <rect x="0" y="20" width="8" height="8" rx="1" class="filled" style="animation-delay: 0.08s"/>
      <rect x="10" y="20" width="8" height="8" rx="1" class="filled" style="animation-delay: 0.10s"/>
      <rect x="20" y="20" width="8" height="8" rx="1" class="filled" style="animation-delay: 0.12s"/>
      <rect x="30" y="20" width="8" height="8" rx="1" class="filled" style="animation-delay: 0.14s"/>
      
      <rect x="0" y="30" width="8" height="8" rx="1" class="filled" style="animation-delay: 0.16s"/>
      <rect x="10" y="30" width="8" height="8" rx="1" class="empty"/>
      <rect x="20" y="30" width="8" height="8" rx="1" class="empty"/>
      <rect x="30" y="30" width="8" height="8" rx="1" class="filled" style="animation-delay: 0.18s"/>
      
      <rect x="0" y="40" width="8" height="8" rx="1" class="filled" style="animation-delay: 0.20s"/>
      <rect x="10" y="40" width="8" height="8" rx="1" class="empty"/>
      <rect x="20" y="40" width="8" height="8" rx="1" class="empty"/>
      <rect x="30" y="40" width="8" height="8" rx="1" class="filled" style="animation-delay: 0.22s"/>
      
      <rect x="0" y="50" width="8" height="8" rx="1" class="filled" style="animation-delay: 0.24s"/>
      <rect x="10" y="50" width="8" height="8" rx="1" class="empty"/>
      <rect x="20" y="50" width="8" height="8" rx="1" class="empty"/>
      <rect x="30" y="50" width="8" height="8" rx="1" class="filled" style="animation-delay: 0.26s"/>
    </g>
    
    <!-- N -->
    <g transform="translate(50, 0)">
      <rect x="0" y="0" width="8" height="8" rx="1" class="filled" style="animation-delay: 0.02s"/>
      <rect x="10" y="0" width="8" height="8" rx="1" class="empty"/>
      <rect x="20" y="0" width="8" height="8" rx="1" class="empty"/>
      <rect x="30" y="0" width="8" height="8" rx="1" class="filled" style="animation-delay: 0.04s"/>
      
      <rect x="0" y="10" width="8" height="8" rx="1" class="filled" style="animation-delay: 0.06s"/>
      <rect x="10" y="10" width="8" height="8" rx="1" class="filled" style="animation-delay: 0.08s"/>
      <rect x="20" y="10" width="8" height="8" rx="1" class="empty"/>
      <rect x="30" y="10" width="8" height="8" rx="1" class="filled" style="animation-delay: 0.10s"/>
      
      <rect x="0" y="20" width="8" height="8" rx="1" class="filled" style="animation-delay: 0.12s"/>
      <rect x="10" y="20" width="8" height="8" rx="1" class="empty"/>
      <rect x="20" y="20" width="8" height="8" rx="1" class="filled" style="animation-delay: 0.14s"/>
      <rect x="30" y="20" width="8" height="8" rx="1" class="filled" style="animation-delay: 0.16s"/>
      
      <rect x="0" y="30" width="8" height="8" rx="1" class="filled" style="animation-delay: 0.18s"/>
      <rect x="10" y="30" width="8" height="8" rx="1" class="empty"/>
      <rect x="20" y="30" width="8" height="8" rx="1" class="empty"/>
      <rect x="30" y="30" width="8" height="8" rx="1" class="filled" style="animation-delay: 0.20s"/>
      
      <rect x="0" y="40" width="8" height="8" rx="1" class="filled" style="animation-delay: 0.22s"/>
      <rect x="10" y="40" width="8" height="8" rx="1" class="empty"/>
      <rect x="20" y="40" width="8" height="8" rx="1" class="empty"/>
      <rect x="30" y="40" width="8" height="8" rx="1" class="filled" style="animation-delay: 0.24s"/>
      
      <rect x="0" y="50" width="8" height="8" rx="1" class="filled" style="animation-delay: 0.26s"/>
      <rect x="10" y="50" width="8" height="8" rx="1" class="empty"/>
      <rect x="20" y="50" width="8" height="8" rx="1" class="empty"/>
      <rect x="30" y="50" width="8" height="8" rx="1" class="filled" style="animation-delay: 0.28s"/>
    </g>
    
    <!-- R -->
    <g transform="translate(100, 0)">
      <rect x="0" y="0" width="8" height="8" rx="1" class="filled" style="animation-delay: 0.04s"/>
      <rect x="10" y="0" width="8" height="8" rx="1" class="filled" style="animation-delay: 0.06s"/>
      <rect x="20" y="0" width="8" height="8" rx="1" class="filled" style="animation-delay: 0.08s"/>
      <rect x="30" y="0" width="8" height="8" rx="1" class="empty"/>
      
      <rect x="0" y="10" width="8" height="8" rx="1" class="filled" style="animation-delay: 0.10s"/>
      <rect x="10" y="10" width="8" height="8" rx="1" class="empty"/>
      <rect x="20" y="10" width="8" height="8" rx="1" class="empty"/>
      <rect x="30" y="10" width="8" height="8" rx="1" class="filled" style="animation-delay: 0.12s"/>
      
      <rect x="0" y="20" width="8" height="8" rx="1" class="filled" style="animation-delay: 0.14s"/>
      <rect x="10" y="20" width="8" height="8" rx="1" class="filled" style="animation-delay: 0.16s"/>
      <rect x="20" y="20" width="8" height="8" rx="1" class="filled" style="animation-delay: 0.18s"/>
      <rect x="30" y="20" width="8" height="8" rx="1" class="empty"/>
      
      <rect x="0" y="30" width="8" height="8" rx="1" class="filled" style="animation-delay: 0.20s"/>
      <rect x="10" y="30" width="8" height="8" rx="1" class="empty"/>
      <rect x="20" y="30" width="8" height="8" rx="1" class="filled" style="animation-delay: 0.22s"/>
      <rect x="30" y="30" width="8" height="8" rx="1" class="empty"/>
      
      <rect x="0" y="40" width="8" height="8" rx="1" class="filled" style="animation-delay: 0.24s"/>
      <rect x="10" y="40" width="8" height="8" rx="1" class="empty"/>
      <rect x="20" y="40" width="8" height="8" rx="1" class="empty"/>
      <rect x="30" y="40" width="8" height="8" rx="1" class="filled" style="animation-delay: 0.26s"/>
      
      <rect x="0" y="50" width="8" height="8" rx="1" class="filled" style="animation-delay: 0.28s"/>
      <rect x="10" y="50" width="8" height="8" rx="1" class="empty"/>
      <rect x="20" y="50" width="8" height="8" rx="1" class="empty"/>
      <rect x="30" y="50" width="8" height="8" rx="1" class="filled" style="animation-delay: 0.30s"/>
    </g>
    
    <!-- B -->
    <g transform="translate(170, 0)">
      <rect x="0" y="0" width="8" height="8" rx="1" class="filled" style="animation-delay: 0.08s"/>
      <rect x="10" y="0" width="8" height="8" rx="1" class="filled" style="animation-delay: 0.10s"/>
      <rect x="20" y="0" width="8" height="8" rx="1" class="filled" style="animation-delay: 0.12s"/>
      <rect x="30" y="0" width="8" height="8" rx="1" class="empty"/>
      
      <rect x="0" y="10" width="8" height="8" rx="1" class="filled" style="animation-delay: 0.14s"/>
      <rect x="10" y="10" width="8" height="8" rx="1" class="empty"/>
      <rect x="20" y="10" width="8" height="8" rx="1" class="empty"/>
      <rect x="30" y="10" width="8" height="8" rx="1" class="filled" style="animation-delay: 0.16s"/>
      
      <rect x="0" y="20" width="8" height="8" rx="1" class="filled" style="animation-delay: 0.18s"/>
      <rect x="10" y="20" width="8" height="8" rx="1" class="filled" style="animation-delay: 0.20s"/>
      <rect x="20" y="20" width="8" height="8" rx="1" class="filled" style="animation-delay: 0.22s"/>
      <rect x="30" y="20" width="8" height="8" rx="1" class="empty"/>
      
      <rect x="0" y="30" width="8" height="8" rx="1" class="filled" style="animation-delay: 0.24s"/>
      <rect x="10" y="30" width="8" height="8" rx="1" class="empty"/>
      <rect x="20" y="30" width="8" height="8" rx="1" class="empty"/>
      <rect x="30" y="30" width="8" height="8" rx="1" class="filled" style="animation-delay: 0.26s"/>
      
      <rect x="0" y="40" width="8" height="8" rx="1" class="filled" style="animation-delay: 0.28s"/>
      <rect x="10" y="40" width="8" height="8" rx="1" class="empty"/>
      <rect x="20" y="40" width="8" height="8" rx="1" class="empty"/>
      <rect x="30" y="40" width="8" height="8" rx="1" class="filled" style="animation-delay: 0.30s"/>
      
      <rect x="0" y="50" width="8" height="8" rx="1" class="filled" style="animation-delay: 0.32s"/>
      <rect x="10" y="50" width="8" height="8" rx="1" class="filled" style="animation-delay: 0.34s"/>
      <rect x="20" y="50" width="8" height="8" rx="1" class="filled" style="animation-delay: 0.36s"/>
      <rect x="30" y="50" width="8" height="8" rx="1" class="empty"/>
    </g>
    
    <!-- L -->
    <g transform="translate(220, 0)">
      <rect x="0" y="0" width="8" height="8" rx="1" class="filled" style="animation-delay: 0.10s"/>
      <rect x="10" y="0" width="8" height="8" rx="1" class="empty"/>
      <rect x="20" y="0" width="8" height="8" rx="1" class="empty"/>
      
      <rect x="0" y="10" width="8" height="8" rx="1" class="filled" style="animation-delay: 0.14s"/>
      <rect x="10" y="10" width="8" height="8" rx="1" class="empty"/>
      <rect x="20" y="10" width="8" height="8" rx="1" class="empty"/>
      
      <rect x="0" y="20" width="8" height="8" rx="1" class="filled" style="animation-delay: 0.18s"/>
      <rect x="10" y="20" width="8" height="8" rx="1" class="empty"/>
      <rect x="20" y="20" width="8" height="8" rx="1" class="empty"/>
      
      <rect x="0" y="30" width="8" height="8" rx="1" class="filled" style="animation-delay: 0.22s"/>
      <rect x="10" y="30" width="8" height="8" rx="1" class="empty"/>
      <rect x="20" y="30" width="8" height="8" rx="1" class="empty"/>
      
      <rect x="0" y="40" width="8" height="8" rx="1" class="filled" style="animation-delay: 0.26s"/>
      <rect x="10" y="40" width="8" height="8" rx="1" class="empty"/>
      <rect x="20" y="40" width="8" height="8" rx="1" class="empty"/>
      
      <rect x="0" y="50" width="8" height="8" rx="1" class="filled" style="animation-delay: 0.30s"/>
      <rect x="10" y="50" width="8" height="8" rx="1" class="filled" style="animation-delay: 0.32s"/>
      <rect x="20" y="50" width="8" height="8" rx="1" class="filled" style="animation-delay: 0.34s"/>
    </g>
    
    <!-- O -->
    <g transform="translate(260, 0)">
      <rect x="0" y="0" width="8" height="8" rx="1" class="empty"/>
      <rect x="10" y="0" width="8" height="8" rx="1" class="filled" style="animation-delay: 0.12s"/>
      <rect x="20" y="0" width="8" height="8" rx="1" class="filled" style="animation-delay: 0.14s"/>
      <rect x="30" y="0" width="8" height="8" rx="1" class="empty"/>
      
      <rect x="0" y="10" width="8" height="8" rx="1" class="filled" style="animation-delay: 0.16s"/>
      <rect x="10" y="10" width="8" height="8" rx="1" class="empty"/>
      <rect x="20" y="10" width="8" height="8" rx="1" class="empty"/>
      <rect x="30" y="10" width="8" height="8" rx="1" class="filled" style="animation-delay: 0.18s"/>
      
      <rect x="0" y="20" width="8" height="8" rx="1" class="filled" style="animation-delay: 0.20s"/>
      <rect x="10" y="20" width="8" height="8" rx="1" class="empty"/>
      <rect x="20" y="20" width="8" height="8" rx="1" class="empty"/>
      <rect x="30" y="20" width="8" height="8" rx="1" class="filled" style="animation-delay: 0.22s"/>
      
      <rect x="0" y="30" width="8" height="8" rx="1" class="filled" style="animation-delay: 0.24s"/>
      <rect x="10" y="30" width="8" height="8" rx="1" class="empty"/>
      <rect x="20" y="30" width="8" height="8" rx="1" class="empty"/>
      <rect x="30" y="30" width="8" height="8" rx="1" class="filled" style="animation-delay: 0.26s"/>
      
      <rect x="0" y="40" width="8" height="8" rx="1" class="filled" style="animation-delay: 0.28s"/>
      <rect x="10" y="40" width="8" height="8" rx="1" class="empty"/>
      <rect x="20" y="40" width="8" height="8" rx="1" class="empty"/>
      <rect x="30" y="40" width="8" height="8" rx="1" class="filled" style="animation-delay: 0.30s"/>
      
      <rect x="0" y="50" width="8" height="8" rx="1" class="empty"/>
      <rect x="10" y="50" width="8" height="8" rx="1" class="filled" style="animation-delay: 0.32s"/>
      <rect x="20" y="50" width="8" height="8" rx="1" class="filled" style="animation-delay: 0.34s"/>
      <rect x="30" y="50" width="8" height="8" rx="1" class="empty"/>
    </g>
    
    <!-- C -->
    <g transform="translate(310, 0)">
      <rect x="0" y="0" width="8" height="8" rx="1" class="empty"/>
      <rect x="10" y="0" width="8" height="8" rx="1" class="filled" style="animation-delay: 0.14s"/>
      <rect x="20" y="0" width="8" height="8" rx="1" class="filled" style="animation-delay: 0.16s"/>
      <rect x="30" y="0" width="8" height="8" rx="1" class="filled" style="animation-delay: 0.18s"/>
      
      <rect x="0" y="10" width="8" height="8" rx="1" class="filled" style="animation-delay: 0.20s"/>
      <rect x="10" y="10" width="8" height="8" rx="1" class="empty"/>
      <rect x="20" y="10" width="8" height="8" rx="1" class="empty"/>
      <rect x="30" y="10" width="8" height="8" rx="1" class="empty"/>
      
      <rect x="0" y="20" width="8" height="8" rx="1" class="filled" style="animation-delay: 0.22s"/>
      <rect x="10" y="20" width="8" height="8" rx="1" class="empty"/>
      <rect x="20" y="20" width="8" height="8" rx="1" class="empty"/>
      <rect x="30" y="20" width="8" height="8" rx="1" class="empty"/>
      
      <rect x="0" y="30" width="8" height="8" rx="1" class="filled" style="animation-delay: 0.24s"/>
      <rect x="10" y="30" width="8" height="8" rx="1" class="empty"/>
      <rect x="20" y="30" width="8" height="8" rx="1" class="empty"/>
      <rect x="30" y="30" width="8" height="8" rx="1" class="empty"/>
      
      <rect x="0" y="40" width="8" height="8" rx="1" class="filled" style="animation-delay: 0.26s"/>
      <rect x="10" y="40" width="8" height="8" rx="1" class="empty"/>
      <rect x="20" y="40" width="8" height="8" rx="1" class="empty"/>
      <rect x="30" y="40" width="8" height="8" rx="1" class="empty"/>
      
      <rect x="0" y="50" width="8" height="8" rx="1" class="empty"/>
      <rect x="10" y="50" width="8" height="8" rx="1" class="filled" style="animation-delay: 0.28s"/>
      <rect x="20" y="50" width="8" height="8" rx="1" class="filled" style="animation-delay: 0.30s"/>
      <rect x="30" y="50" width="8" height="8" rx="1" class="filled" style="animation-delay: 0.32s"/>
    </g>
    
    <!-- K -->
    <g transform="translate(360, 0)">
      <rect x="0" y="0" width="8" height="8" rx="1" class="filled" style="animation-delay: 0.16s"/>
      <rect x="10" y="0" width="8" height="8" rx="1" class="empty"/>
      <rect x="20" y="0" width="8" height="8" rx="1" class="empty"/>
      <rect x="30" y="0" width="8" height="8" rx="1" class="filled" style="animation-delay: 0.18s"/>
      
      <rect x="0" y="10" width="8" height="8" rx="1" class="filled" style="animation-delay: 0.20s"/>
      <rect x="10" y="10" width="8" height="8" rx="1" class="empty"/>
      <rect x="20" y="10" width="8" height="8" rx="1" class="filled" style="animation-delay: 0.22s"/>
      <rect x="30" y="10" width="8" height="8" rx="1" class="empty"/>
      
      <rect x="0" y="20" width="8" height="8" rx="1" class="filled" style="animation-delay: 0.24s"/>
      <rect x="10" y="20" width="8" height="8" rx="1" class="filled" style="animation-delay: 0.26s"/>
      <rect x="20" y="20" width="8" height="8" rx="1" class="empty"/>
      <rect x="30" y="20" width="8" height="8" rx="1" class="empty"/>
      
      <rect x="0" y="30" width="8" height="8" rx="1" class="filled" style="animation-delay: 0.28s"/>
      <rect x="10" y="30" width="8" height="8" rx="1" class="filled" style="animation-delay: 0.30s"/>
      <rect x="20" y="30" width="8" height="8" rx="1" class="empty"/>
      <rect x="30" y="30" width="8" height="8" rx="1" class="empty"/>
      
      <rect x="0" y="40" width="8" height="8" rx="1" class="filled" style="animation-delay: 0.32s"/>
      <rect x="10" y="40" width="8" height="8" rx="1" class="empty"/>
      <rect x="20" y="40" width="8" height="8" rx="1" class="filled" style="animation-delay: 0.34s"/>
      <rect x="30" y="40" width="8" height="8" rx="1" class="empty"/>
      
      <rect x="0" y="50" width="8" height="8" rx="1" class="filled" style="animation-delay: 0.36s"/>
      <rect x="10" y="50" width="8" height="8" rx="1" class="empty"/>
      <rect x="20" y="50" width="8" height="8" rx="1" class="empty"/>
      <rect x="30" y="50" width="8" height="8" rx="1" class="filled" style="animation-delay: 0.38s"/>
    </g>
    
    <!-- F -->
    <g transform="translate(410, 0)">
      <rect x="0" y="0" width="8" height="8" rx="1" class="filled" style="animation-delay: 0.18s"/>
      <rect x="10" y="0" width="8" height="8" rx="1" class="filled" style="animation-delay: 0.20s"/>
      <rect x="20" y="0" width="8" height="8" rx="1" class="filled" style="animation-delay: 0.22s"/>
      <rect x="30" y="0" width="8" height="8" rx="1" class="filled" style="animation-delay: 0.24s"/>
      
      <rect x="0" y="10" width="8" height="8" rx="1" class="filled" style="animation-delay: 0.26s"/>
      <rect x="10" y="10" width="8" height="8" rx="1" class="empty"/>
      <rect x="20" y="10" width="8" height="8" rx="1" class="empty"/>
      <rect x="30" y="10" width="8" height="8" rx="1" class="empty"/>
      
      <rect x="0" y="20" width="8" height="8" rx="1" class="filled" style="animation-delay: 0.28s"/>
      <rect x="10" y="20" width="8" height="8" rx="1" class="filled" style="animation-delay: 0.30s"/>
      <rect x="20" y="20" width="8" height="8" rx="1" class="filled" style="animation-delay: 0.32s"/>
      <rect x="30" y="20" width="8" height="8" rx="1" class="empty"/>
      
      <rect x="0" y="30" width="8" height="8" rx="1" class="filled" style="animation-delay: 0.34s"/>
      <rect x="10" y="30" width="8" height="8" rx="1" class="empty"/>
      <rect x="20" y="30" width="8" height="8" rx="1" class="empty"/>
      <rect x="30" y="30" width="8" height="8" rx="1" class="empty"/>
      
      <rect x="0" y="40" width="8" height="8" rx="1" class="filled" style="animation-delay: 0.36s"/>
      <rect x="10" y="40" width="8" height="8" rx="1" class="empty"/>
      <rect x="20" y="40" width="8" height="8" rx="1" class="empty"/>
      <rect x="30" y="40" width="8" height="8" rx="1" class="empty"/>
      
      <rect x="0" y="50" width="8" height="8" rx="1" class="filled" style="animation-delay: 0.38s"/>
      <rect x="10" y="50" width="8" height="8" rx="1" class="empty"/>
      <rect x="20" y="50" width="8" height="8" rx="1" class="empty"/>
      <rect x="30" y="50" width="8" height="8" rx="1" class="empty"/>
    </g>
    
    <!-- I -->
    <g transform="translate(460, 0)">
      <rect x="0" y="0" width="8" height="8" rx="1" class="filled" style="animation-delay: 0.20s"/>
      <rect x="10" y="0" width="8" height="8" rx="1" class="filled" style="animation-delay: 0.22s"/>
      <rect x="20" y="0" width="8" height="8" rx="1" class="filled" style="animation-delay: 0.24s"/>
      
      <rect x="0" y="10" width="8" height="8" rx="1" class="empty"/>
      <rect x="10" y="10" width="8" height="8" rx="1" class="filled" style="animation-delay: 0.26s"/>
      <rect x="20" y="10" width="8" height="8" rx="1" class="empty"/>
      
      <rect x="0" y="20" width="8" height="8" rx="1" class="empty"/>
      <rect x="10" y="20" width="8" height="8" rx="1" class="filled" style="animation-delay: 0.28s"/>
      <rect x="20" y="20" width="8" height="8" rx="1" class="empty"/>
      
      <rect x="0" y="30" width="8" height="8" rx="1" class="empty"/>
      <rect x="10" y="30" width="8" height="8" rx="1" class="filled" style="animation-delay: 0.30s"/>
      <rect x="20" y="30" width="8" height="8" rx="1" class="empty"/>
      
      <rect x="0" y="40" width="8" height="8" rx="1" class="empty"/>
      <rect x="10" y="40" width="8" height="8" rx="1" class="filled" style="animation-delay: 0.32s"/>
      <rect x="20" y="40" width="8" height="8" rx="1" class="empty"/>
      
      <rect x="0" y="50" width="8" height="8" rx="1" class="filled" style="animation-delay: 0.34s"/>
      <rect x="10" y="50" width="8" height="8" rx="1" class="filled" style="animation-delay: 0.36s"/>
      <rect x="20" y="50" width="8" height="8" rx="1" class="filled" style="animation-delay: 0.38s"/>
    </g>
  </g>
</svg>
